<svg width="42" height="39" viewBox="0 0 42 39" fill="none" xmlns="http://www.w3.org/2000/svg">
<g id="Icon electric car">
<path id="Vector" d="M6.64907 26.8916H6.12013C5.47438 26.8916 4.85508 27.1256 4.39847 27.5422C3.94186 27.9588 3.68533 28.5239 3.68533 29.113C3.68533 29.7022 3.94186 30.2672 4.39847 30.6838C4.85508 31.1004 5.47438 31.3344 6.12013 31.3344H6.64907C7.29482 31.3344 7.91412 31.1004 8.37074 30.6838C8.82735 30.2672 9.08387 29.7022 9.08387 29.113C9.08387 28.5239 8.82735 27.9588 8.37074 27.5422C7.91412 27.1256 7.29482 26.8916 6.64907 26.8916ZM6.64907 30.1088H6.12013C5.83066 30.1088 5.55304 30.0039 5.34835 29.8171C5.14366 29.6304 5.02867 29.3771 5.02867 29.113C5.02867 28.8489 5.14366 28.5956 5.34835 28.4089C5.55304 28.2221 5.83066 28.1172 6.12013 28.1172H6.64907C6.93855 28.1172 7.21616 28.2221 7.42085 28.4089C7.62554 28.5956 7.74053 28.8489 7.74053 29.113C7.74053 29.3771 7.62554 29.6304 7.42085 29.8171C7.21616 30.0039 6.93855 30.1088 6.64907 30.1088ZM26.786 26.8916H26.2571C25.6114 26.8916 24.9921 27.1256 24.5354 27.5422C24.0788 27.9588 23.8223 28.5239 23.8223 29.113C23.8223 29.7022 24.0788 30.2672 24.5354 30.6838C24.9921 31.1004 25.6114 31.3344 26.2571 31.3344H26.786C27.4318 31.3344 28.0511 31.1004 28.5077 30.6838C28.9643 30.2672 29.2208 29.7022 29.2208 29.113C29.2208 28.5239 28.9643 27.9588 28.5077 27.5422C28.0511 27.1256 27.4318 26.8916 26.786 26.8916ZM26.786 30.1088H26.2571C25.9676 30.1088 25.69 30.0039 25.4853 29.8171C25.2806 29.6304 25.1656 29.3771 25.1656 29.113C25.1656 28.8489 25.2806 28.5956 25.4853 28.4089C25.69 28.2221 25.9676 28.1172 26.2571 28.1172H26.786C27.0755 28.1172 27.3531 28.2221 27.5578 28.4089C27.7625 28.5956 27.8775 28.8489 27.8775 29.113C27.8775 29.3771 27.7625 29.6304 27.5578 29.8171C27.3531 30.0039 27.0755 30.1088 26.786 30.1088ZM21.7469 27.5044C21.7469 27.3419 21.6762 27.186 21.5502 27.0711C21.4242 26.9562 21.2534 26.8916 21.0753 26.8916H11.7559C11.5777 26.8916 11.4069 26.9562 11.2809 27.0711C11.155 27.186 11.0842 27.3419 11.0842 27.5044V30.645C11.0842 30.8075 11.155 30.9634 11.2809 31.0783C11.4069 31.1932 11.5777 31.2578 11.7559 31.2578H21.0753C21.2534 31.2578 21.4242 31.1932 21.5502 31.0783C21.6762 30.9634 21.7469 30.8075 21.7469 30.645V27.5044ZM20.4036 30.0322H12.4275V28.1172H20.4036V30.0322Z" fill="white"/>
<path id="Vector_2" d="M40.418 3.21826C40.5962 3.21826 40.767 3.15142 40.893 3.03243C41.019 2.91344 41.0898 2.75206 41.0898 2.58378C41.0898 2.41551 41.019 2.25413 40.893 2.13514C40.767 2.01615 40.5962 1.9493 40.418 1.9493H38.5707V1.58265C38.5707 1.23226 38.302 0.918274 37.9305 0.918274H34.6557C33.2171 0.918274 32.0242 1.9493 31.8293 3.29757H9.0653C7.78478 3.29757 6.5567 3.77804 5.65123 4.63326C4.74576 5.48849 4.23708 6.64843 4.23708 7.8579C4.23708 9.06737 4.74576 10.2273 5.65123 11.0825C6.5567 11.9378 7.78478 12.4182 9.0653 12.4182H34.8858C35.3466 12.4155 35.8035 12.4988 36.23 12.6635C36.6566 12.8281 37.0445 13.0709 37.3714 13.3777C37.6983 13.6845 37.9577 14.0493 38.1347 14.4512C38.3117 14.8531 38.4028 15.2841 38.4027 15.7193V25.3952C38.4027 27.2318 36.8312 28.7561 34.8865 28.7561H32.357V26.5145C32.3543 26.0144 32.2448 25.5199 32.0352 25.0607C31.8255 24.6015 31.52 24.1869 31.1368 23.8417L30.4392 23.1424L27.9957 16.9293C27.7922 16.4189 27.4286 15.9793 26.9536 15.6692C26.4785 15.3592 25.9146 15.1934 25.3372 15.1941H7.89166C7.31456 15.1935 6.75103 15.3594 6.27644 15.6695C5.80185 15.9797 5.43881 16.4193 5.23589 16.9295L2.82505 23.0696L1.82297 23.9428C1.39266 24.2887 1.04694 24.7186 0.809685 25.203C0.572426 25.6874 0.449274 26.2146 0.44873 26.7483V37.8468C0.449925 38.0193 0.521541 38.1846 0.648648 38.3084C0.775754 38.4322 0.94854 38.5048 1.13098 38.5112H7.25232C7.6233 38.5112 7.92198 38.1972 7.92198 37.8468V34.4664H24.8837V37.8468C24.8837 38.1972 25.1733 38.5112 25.5444 38.5112H31.6657C31.8491 38.5052 32.0231 38.4329 32.1517 38.3093C32.2803 38.1856 32.3538 38.0201 32.357 37.8468V30.025H34.8865C37.572 30.025 39.7462 27.9313 39.7462 25.3952V15.7193C39.7461 15.1176 39.6201 14.5217 39.3756 13.966C39.131 13.4103 38.7727 12.9057 38.3212 12.4811C37.8697 12.0565 37.3339 11.7203 36.7445 11.4917C36.1551 11.2632 35.5237 11.1468 34.8865 11.1493H9.06605C8.14185 11.1493 7.2555 10.8025 6.60199 10.1852C5.94848 9.568 5.58134 8.73082 5.58134 7.8579C5.58134 6.98498 5.94848 6.1478 6.60199 5.53055C7.2555 4.9133 8.14185 4.56653 9.06605 4.56653H31.8301C31.9353 5.20445 32.2775 5.78617 32.7953 6.20758C33.3132 6.62898 33.9729 6.86257 34.6565 6.86652H37.9313C38.302 6.86652 38.5707 6.57197 38.5707 6.22158V5.83549H40.418C40.5962 5.83549 40.767 5.76865 40.893 5.64966C41.019 5.53067 41.0898 5.36929 41.0898 5.20101C41.0898 5.03274 41.019 4.87136 40.893 4.75237C40.767 4.63338 40.5962 4.56653 40.418 4.56653H38.5707V3.21826H40.418ZM6.49568 17.3784C6.60217 17.1098 6.79286 16.8783 7.04229 16.7147C7.29172 16.5512 7.58802 16.4634 7.89166 16.463H25.3372C25.6408 16.4634 25.9371 16.5512 26.1865 16.7147C26.436 16.8783 26.6267 17.1098 26.7331 17.3784L28.8639 22.8078H4.3648L6.49568 17.3784ZM6.57847 37.2423H1.79224V34.4664H6.57847V37.2423ZM26.2272 37.2423V34.4664H31.0135V37.2423H26.2272ZM31.0135 33.1974H1.79224V26.7483C1.79291 26.3958 1.87485 26.0477 2.03238 25.7282C2.1899 25.4087 2.41922 25.1254 2.70439 24.8981C2.7122 24.8918 2.72236 24.8933 2.72958 24.8868L3.66357 24.0768H29.5042L30.1597 24.7305C30.1691 24.7401 30.1886 24.7454 30.1986 24.7543C30.4536 24.9802 30.6573 25.2527 30.7973 25.5553C30.9373 25.8579 31.0107 26.1842 31.0131 26.5144V33.1974H31.0135ZM33.1127 4.15952V3.64471C33.1191 3.26003 33.2838 2.8928 33.5719 2.62078C33.8599 2.34875 34.2488 2.19326 34.656 2.18723H35.5478V5.59756H34.656C34.2508 5.59593 33.8624 5.44451 33.574 5.17573C33.2855 4.90695 33.1199 4.54217 33.1127 4.15952ZM37.2272 5.59756H36.8913V2.18723H37.2272V5.59756Z" fill="white"/>
</g>
</svg>
