<?xml version="1.0" encoding="UTF-8"?><svg id="Layer_1" xmlns="http://www.w3.org/2000/svg" viewBox="0 0 1170.87 437.88"><defs><style>.cls-1{fill:none;}.cls-2{fill:#feaf00;}</style></defs><g><path class="cls-2" d="M593.41,303.52c-8.36-4.33-14.85-10.41-19.5-18.22-4.64-7.81-6.96-16.9-6.96-27.27v-110.03c0-1.54,.77-2.32,2.32-2.32h11.84c1.54,0,2.32,.78,2.32,2.32v110.49c0,10.99,3.56,19.93,10.68,26.81,7.12,6.89,16.48,10.33,28.09,10.33s20.97-3.44,28.09-10.33c7.12-6.88,10.68-15.82,10.68-26.81v-110.49c0-1.54,.77-2.32,2.32-2.32h11.84c1.54,0,2.32,.78,2.32,2.32v110.03c0,10.37-2.29,19.46-6.85,27.27-4.57,7.82-11.03,13.89-19.38,18.22-8.36,4.33-18.03,6.5-29.02,6.5s-20.43-2.17-28.78-6.5Z"/><path class="cls-2" d="M806.5,306.54l-34.12-71.96c-.16-.46-.46-.7-.93-.7h-39.46c-.62,0-.93,.31-.93,.93v71.03c0,1.55-.78,2.32-2.32,2.32h-11.84c-1.55,0-2.32-.77-2.32-2.32V148c0-1.54,.77-2.32,2.32-2.32h60.12c13.31,0,24.06,4.14,32.26,12.42,8.2,8.28,12.3,19.07,12.3,32.38,0,10.83-2.94,20.04-8.82,27.62-5.88,7.58-13.85,12.46-23.91,14.62-.62,.31-.78,.7-.46,1.16l34.82,71.49c.15,.31,.23,.7,.23,1.16,0,1.09-.62,1.63-1.86,1.63h-12.3c-1.39,0-2.32-.54-2.79-1.63Zm-75.44-145.54v58.73c0,.62,.31,.93,.93,.93h43.18c8.97,0,16.25-2.79,21.82-8.36,5.57-5.57,8.36-12.84,8.36-21.82s-2.79-16.28-8.36-21.94c-5.57-5.65-12.85-8.47-21.82-8.47h-43.18c-.62,0-.93,.31-.93,.93Z"/><path class="cls-2" d="M1006.47,298.18c-10.14-7.89-15.2-18.41-15.2-31.57v-7.2c0-1.54,.77-2.32,2.32-2.32h11.37c1.54,0,2.32,.78,2.32,2.32v6.27c0,8.98,3.71,16.21,11.14,21.7,7.43,5.49,17.72,8.24,30.87,8.24,11.91,0,20.97-2.51,27.16-7.54,6.19-5.03,9.29-11.72,9.29-20.08,0-5.41-1.43-10.06-4.29-13.93-2.86-3.87-7.27-7.5-13.23-10.91-5.96-3.4-14.35-7.35-25.18-11.84-11.61-4.64-20.62-8.7-27.04-12.19-6.42-3.48-11.61-7.97-15.55-13.46-3.95-5.49-5.92-12.42-5.92-20.77,0-13,4.53-23.1,13.58-30.29,9.05-7.2,21.47-10.79,37.26-10.79,17.18,0,30.72,4.03,40.62,12.07,9.9,8.05,14.86,18.73,14.86,32.03v5.11c0,1.55-.78,2.32-2.32,2.32h-11.61c-1.55,0-2.32-.77-2.32-2.32v-4.18c0-8.97-3.52-16.32-10.56-22.05-7.04-5.72-16.83-8.59-29.36-8.59-10.99,0-19.42,2.25-25.3,6.73-5.88,4.49-8.82,10.99-8.82,19.5,0,5.57,1.43,10.18,4.29,13.81,2.86,3.64,6.96,6.81,12.3,9.52,5.34,2.71,13.58,6.23,24.72,10.56,11.29,4.64,20.39,8.98,27.27,13,6.88,4.03,12.45,8.94,16.71,14.74,4.25,5.8,6.38,12.88,6.38,21.24,0,13-4.8,23.37-14.39,31.1-9.6,7.74-22.9,11.61-39.93,11.61s-31.3-3.95-41.43-11.84Z"/><path class="cls-2" d="M945.77,229.03v27.83c0,11.76-3.56,21.2-10.68,28.32-7.12,7.12-16.56,10.68-28.32,10.68s-20.97-3.56-28.09-10.68c-7.12-7.12-10.68-16.56-10.68-28.32v-27.83h-16.48v27.14c0,10.68,2.28,20.08,6.85,28.2,4.56,8.12,11.03,14.43,19.38,18.92,8.36,4.49,18.03,6.73,29.02,6.73s20.7-2.24,29.13-6.73c8.43-4.49,14.93-10.79,19.5-18.92,4.56-8.12,6.85-17.53,6.85-28.2v-27.14h-16.48Z"/><path class="cls-2" d="M516.26,229.03v27.83c0,11.76-3.56,21.2-10.68,28.32-7.12,7.12-16.56,10.68-28.32,10.68s-20.97-3.56-28.09-10.68c-7.12-7.12-10.68-16.56-10.68-28.32v-27.83h-16.48v27.14c0,10.68,2.28,20.08,6.85,28.2,4.56,8.12,11.03,14.43,19.38,18.92,8.36,4.49,18.03,6.73,29.02,6.73s20.7-2.24,29.13-6.73c8.43-4.49,14.93-10.79,19.5-18.92,4.56-8.12,6.85-17.53,6.85-28.2v-27.14h-16.48Z"/><path class="cls-2" d="M438.5,222.42v-24.98c0-11.76,3.56-21.24,10.68-28.44,7.12-7.2,16.48-10.79,28.09-10.79s21.2,3.6,28.32,10.79c7.12,7.2,10.68,16.68,10.68,28.44v24.98h16.48v-24.74c0-10.68-2.29-20.08-6.85-28.2-4.57-8.12-11.07-14.43-19.5-18.92-8.44-4.49-18.14-6.73-29.13-6.73s-20.66,2.25-29.02,6.73c-8.36,4.49-14.82,10.79-19.38,18.92-4.57,8.12-6.85,17.52-6.85,28.2v24.74h16.48Z"/><path class="cls-2" d="M868.01,222.42v-24.98c0-11.76,3.56-21.24,10.68-28.44,7.12-7.2,16.48-10.79,28.09-10.79s21.2,3.6,28.32,10.79c7.12,7.2,10.68,16.68,10.68,28.44v24.98h16.48v-24.74c0-10.68-2.29-20.08-6.85-28.2-4.57-8.12-11.07-14.43-19.5-18.92-8.44-4.49-18.15-6.73-29.13-6.73s-20.66,2.25-29.02,6.73c-8.36,4.49-14.82,10.79-19.38,18.92-4.57,8.12-6.85,17.52-6.85,28.2v24.74h16.48Z"/></g><path class="cls-1" d="M101.58,235.15h0v54.04c0,25.43,7.66,45.39,23.44,61.02,15.77,15.62,36.1,23.21,62.16,23.21s45.86-7.59,61.47-23.21c15.62-15.62,23.21-35.58,23.21-61.02v-125.05c0-25.44-7.59-45.33-23.2-60.79-15.62-15.47-35.73-22.99-61.48-22.99s-46.4,7.53-62.17,23.01c-15.76,15.47-23.42,35.35-23.42,60.78v54.26h0v16.74Zm9.15-3.33h0v-9.39h0v-58.28c0-22.84,6.76-40.58,20.68-54.24,13.97-13.72,32.21-20.38,55.75-20.38s41.23,6.66,55.04,20.35c13.79,13.65,20.49,31.41,20.49,54.28v125.05c0,22.89-6.72,40.73-20.53,54.55-13.81,13.81-31.8,20.53-55,20.53s-41.75-6.73-55.71-20.56c-13.94-13.82-20.72-31.65-20.72-54.51v-57.38Z"/><path class="cls-1" d="M145.81,235.15h0v54.04c0,17.15,5.52,24.83,10.33,29.6,4.89,4.85,12.84,10.41,31.03,10.41s25.43-5.48,30.2-10.25c4.78-4.78,10.26-12.48,10.26-29.76v-125.05c0-17.16-5.4-24.71-10.1-29.37-4.79-4.74-12.57-10.19-30.36-10.19s-26.28,5.53-31.19,10.34c-4.74,4.65-10.18,12.17-10.18,29.21v54.26h0v16.74Z"/><path class="cls-2" d="M242.21,109.86c-13.82-13.69-31.82-20.35-55.04-20.35-12.09,0-22.75,1.79-32.19,5.35l-.26,41.35c.42-.45,.84-.89,1.25-1.29,4.91-4.82,12.89-10.34,31.19-10.34s25.57,5.45,30.36,10.19c4.7,4.66,10.1,12.2,10.1,29.37v125.05c0,17.27-5.48,24.98-10.26,29.76-4.77,4.77-12.52,10.25-30.2,10.25s-26.14-5.56-31.03-10.41c-4.81-4.77-10.33-12.44-10.33-29.6v-54.04h0v-16.74h0v-54.26c0-.33,.01-.64,.02-.97l-.25-63.84c-5.12,2.89-9.87,6.36-14.16,10.57-13.92,13.66-20.68,31.4-20.68,54.24v58.28h0v9.39h0v57.38c0,22.86,6.78,40.69,20.72,54.51,13.97,13.84,32.19,20.56,55.71,20.56s41.19-6.72,55-20.53c13.81-13.82,20.53-31.66,20.53-54.55v-125.05c0-22.87-6.7-40.63-20.49-54.28Z"/><path class="cls-2" d="M287.69,105.84c-9.72-17.2-23.54-30.76-41.06-40.3-17.25-9.4-37.25-14.16-59.46-14.16s-42.7,4.76-60.08,14.13c-4.84,2.61-9.38,5.55-13.65,8.76l37.36,12.35c10.67-4.19,22.73-6.27,36.37-6.27,25.75,0,45.87,7.52,61.48,22.99,15.61,15.46,23.2,35.34,23.2,60.79v125.05c0,25.44-7.59,45.4-23.21,61.02-15.61,15.62-35.72,23.21-61.47,23.21s-46.39-7.59-62.16-23.21c-15.77-15.63-23.44-35.59-23.44-61.02v-54.04h0v-16.74h0v-54.26c0-25.43,7.66-45.31,23.42-60.78,4.39-4.3,9.14-7.97,14.26-11.06l-34.02-11.15c-7.66,7.13-14.21,15.35-19.49,24.68-9.62,17.02-14.5,36.78-14.5,58.75v57.83h.02v9.39h-.02v56.93c0,21.92,4.86,41.8,14.44,59.1,9.74,17.56,23.67,31.32,41.4,40.88,17.4,9.38,37.61,14.13,60.08,14.13s42.2-4.76,59.46-14.16c17.56-9.57,31.4-23.32,41.12-40.86,9.58-17.28,14.44-37.17,14.44-59.1v-124.15c0-21.98-4.88-41.75-14.5-58.75Z"/></svg>