<svg width="42" height="43" viewBox="0 0 42 43" fill="none" xmlns="http://www.w3.org/2000/svg">
<g id="Group 22">
<path id="Vector" d="M16.3191 26.291C18.8882 28.86 23.0532 28.86 25.6223 26.291C28.1914 23.7219 28.1914 19.5567 25.6223 16.9876C23.0532 14.4186 18.8882 14.4186 16.3191 16.9876C13.7501 19.5567 13.7501 23.7219 16.3191 26.291Z" stroke="white" stroke-width="2.39192" stroke-miterlimit="1.5" stroke-linecap="round" stroke-linejoin="round"/>
<path id="Vector_2" d="M4.24083 32.1033C3.62808 31.1271 3.09626 30.0905 2.66005 29.0084C1.74192 26.7318 1.23718 24.2454 1.23718 21.6406C1.23718 12.3512 7.67026 4.5534 16.3197 2.45956C17.8113 2.09815 19.369 1.90704 20.9707 1.90704" stroke="white" stroke-width="2.39192" stroke-miterlimit="1.5" stroke-linecap="round" stroke-linejoin="round"/>
<path id="Vector_3" d="M37.8872 11.4783C39.6757 14.4487 40.7039 17.9238 40.7039 21.6399C40.7039 29.9862 35.5109 37.1277 28.1845 40.0108C25.9496 40.8894 23.515 41.3734 20.9705 41.3734" stroke="white" stroke-width="2.39192" stroke-miterlimit="1.5" stroke-linecap="round" stroke-linejoin="round"/>
<path id="Vector_4" fill-rule="evenodd" clip-rule="evenodd" d="M25.6226 16.9867C25.6226 16.9867 25.6024 10.8419 28.7236 7.68346C31.8155 4.59479 34.8499 1.40221 38.027 4.58238C41.0458 7.60439 38.0595 10.7427 34.926 13.8856C31.8527 16.9681 25.6226 16.9867 25.6226 16.9867Z" stroke="white" stroke-width="2.39192" stroke-miterlimit="1.5" stroke-linecap="round" stroke-linejoin="round"/>
<path id="Vector_5" fill-rule="evenodd" clip-rule="evenodd" d="M16.3188 26.2877C16.3188 26.2877 16.339 32.4325 13.2178 35.591C10.126 38.6796 7.09156 41.8723 3.91448 38.6921C0.895593 35.67 3.88192 32.5317 7.01558 29.3887C10.0887 26.3063 16.3188 26.2877 16.3188 26.2877Z" stroke="white" stroke-width="2.39192" stroke-miterlimit="1.5" stroke-linecap="round" stroke-linejoin="round"/>
</g>
</svg>
